<?xml version="1.0" encoding="UTF-8" standalone="no"?>
<!-- Created with Inkscape (http://www.inkscape.org/) -->

<svg xmlns:dc="http://purl.org/dc/elements/1.1/" xmlns:cc="http://creativecommons.org/ns#" xmlns:rdf="http://www.w3.org/1999/02/22-rdf-syntax-ns#" xmlns:svg="http://www.w3.org/2000/svg" xmlns="http://www.w3.org/2000/svg" xmlns:sodipodi="http://sodipodi.sourceforge.net/DTD/sodipodi-0.dtd" xmlns:inkscape="http://www.inkscape.org/namespaces/inkscape" id="svg3023" version="1.1" inkscape:version="0.48.5 r10040" width="696" height="170" sodipodi:docname="Marvelstudios.png">
  <metadata id="metadata3029">
    <rdf:RDF>
      <cc:Work rdf:about="">
        <dc:format>image/svg+xml</dc:format>
        <dc:type rdf:resource="http://purl.org/dc/dcmitype/StillImage" />
        <dc:title></dc:title>
      </cc:Work>
    </rdf:RDF>
  </metadata>
  <defs id="defs3027" />
  <sodipodi:namedview pagecolor="#ffffff" bordercolor="#666666" borderopacity="1" objecttolerance="10" gridtolerance="10" guidetolerance="10" inkscape:pageopacity="0" inkscape:pageshadow="2" inkscape:window-width="1366" inkscape:window-height="706" id="namedview3025" showgrid="false" inkscape:zoom="0.49712644" inkscape:cx="872.29549" inkscape:cy="-191.94975" inkscape:window-x="-8" inkscape:window-y="-8" inkscape:window-maximized="1" inkscape:current-layer="svg3023" />
  <g id="g3130">
    <path id="path3068" d="m 0,85 0,-85 348,0 348,0 0,85 0,85 -348,0 -348,0 0,-85 z" style="fill:#030303" />
    <path id="path3066" d="M 346,85.5 346,9 176.5,9 7,9 7,85.5 7,162 l 169.5,0 169.5,0 0,-76.5 z" style="fill:#e91c22;fill-opacity:1" />
    <path id="path3064" d="m 689,159 0,-3 -162,0 -162,0 0,3 0,3 162,0 162,0 0,-3 z" style="fill:white" />
    <g id="g3121">
      <path style="fill:white" d="m 399.68631,140.92916 c 3.81236,-1.44945 6.16782,-3.72637 8.4201,-8.13932 1.61671,-3.16766 1.89359,-5.97291 1.89359,-19.1849 0,-8.51111 -0.4776,-16.741536 -1.06133,-18.28984 -1.57073,-4.166219 -6.2807,-8.685263 -17.26143,-16.56171 -5.40251,-3.875211 -10.5146,-8.101736 -11.3602,-9.392278 -2.00067,-3.053407 -2.9085,-17.537805 -1.43831,-22.948167 1.60345,-5.90076 8.06186,-8.21966 14.59819,-5.241506 2.90305,1.322718 3.40065,2.819669 3.76568,11.328561 l 0.2574,6 6.3715,0.300871 6.37151,0.300871 -0.40868,-9.344075 c -0.48858,-11.171018 -2.33181,-15.092392 -8.76943,-18.656496 -3.55343,-1.967316 -5.7928,-2.404638 -12.44887,-2.431125 -9.97881,-0.03971 -14.62,1.431504 -18.51672,5.869629 -3.8367,4.369754 -4.60232,8.202794 -4.58619,22.960325 0.0186,17.009504 1.11974,19.042515 16.38039,30.242466 6.38357,4.684972 12.38398,9.471996 13.33425,10.637832 2.4459,3.000742 2.61178,27.637302 0.20231,30.046772 -3.52179,3.5218 -12.62783,3.22711 -15.68007,-0.50744 -1.40561,-1.71982 -1.75,-4.09675 -1.75,-12.07813 l 0,-9.93693 -6.25,0.29771 -6.25,0.29772 0.0623,10.5 c 0.0342,5.775 0.60714,12.11327 1.27311,14.08505 2.73927,8.11024 11.31438,12.29915 23.35278,11.40773 3.67848,-0.27239 7.95266,-0.97601 9.49817,-1.56362 z" id="path3062" />
      <path style="fill:white" d="m 501.34485,139.72642 c 2.42669,-1.35487 4.8034,-3.79225 6.07143,-6.22642 2.03051,-3.89786 2.08372,-5.2768 2.08372,-54 l 0,-50 -6.25,-0.297717 -6.25,-0.297718 0,48.436934 C 497,133.94787 497.64055,130.5 487.12407,130.5 c -10.33732,0 -9.58111,4.01579 -9.90163,-52.582052 L 476.94489,28.905996 470.72244,29.202998 464.5,29.5 464.20311,75 c -0.16329,25.025 -0.0213,47.83979 0.31565,50.69954 0.65049,5.52161 3.37699,10.42906 7.48275,13.46824 5.81932,4.30759 22.07436,4.61706 29.34334,0.55864 z" id="path3060" />
      <path style="fill:white" d="M 615.5 28.59375 C 604.55478 28.53367 598.41393 30.970489 594.78125 36.8125 L 592.5 40.5 L 592.5 85.5 L 592.5 130.5 L 594.84375 134.28125 C 597.35029 138.31283 601.34235 140.8816 607 142.125 C 611.41867 143.09612 623.83293 142.40564 627.625 140.96875 C 631.55891 139.47812 634.96013 136.18024 636.875 132 C 638.24521 129.00877 638.48143 122.90354 638.65625 90 C 638.88545 46.863534 638.42701 40.568718 634.65625 35.625 C 630.66817 30.39635 625.9425 28.651074 615.5 28.59375 z M 614.78125 40.53125 C 619.32472 40.50322 621.31329 40.966329 622.90625 42.40625 C 624.98494 44.285226 625.0151 44.872357 625 85.40625 C 624.992 108.0085 624.63402 127.03441 624.21875 127.6875 C 622.38991 130.56369 613.96263 131.87358 609.3125 130 C 608.11096 129.51589 606.64846 128.21986 606.0625 127.125 C 605.35966 125.81173 605 111.54623 605 85.1875 C 605 38.309966 604.50317 40.594666 614.78125 40.53125 z " id="path3058" />
      <path style="fill:white" d="m 679.44793,140.02521 c 2.78012,-1.34584 5.00057,-3.45131 6.61798,-6.2753 C 688.3662,129.73362 688.5,128.62047 688.5,113.5 c 0,-20.929111 9.5e-4,-20.927208 -16.55196,-33.318285 -6.84642,-5.125056 -12.99459,-10.300056 -13.6626,-11.5 -0.73241,-1.315624 -1.22864,-6.405239 -1.25,-12.820931 C 656.98997,42.20962 658.04335,40.5 666.5,40.5 c 7.78381,0 9.5,2.106132 9.5,11.658501 l 0,6.936934 6.25,-0.297718 L 688.5,58.5 688.46147,52 C 688.40598,42.63835 687.30261,38.414247 683.90069,34.539675 680.08105,30.189349 675.41133,28.654287 666,28.65525 c -9.67713,9.9e-4 -15.70033,2.51494 -19.08993,7.967711 -2.1734,3.496319 -2.44469,5.196426 -2.76267,17.312924 -0.21697,8.267971 0.0889,14.909304 0.79511,17.26658 1.61425,5.387888 5.91947,9.894417 17.03164,17.828046 14.13044,10.088553 13.46883,8.948517 13.85127,23.867329 0.28524,11.12722 0.0988,12.97417 -1.51022,14.96123 -3.67671,4.54055 -15.70482,3.65734 -16.82812,-1.23566 C 657.21897,125.45553 656.88719,120.45 656.7498,115.5 l -0.2498,-9 -6.35422,-0.30042 -6.35421,-0.30042 0.38743,12.30042 c 0.42797,13.5871 1.55901,17.05355 6.77645,20.7687 6.14094,4.37273 20.5396,4.90685 28.49248,1.05693 z" id="path3054" />
      <path style="fill:white" d="m 442.75931,91.790292 0.25931,-49.709708 8.24069,-0.290292 L 459.5,41.5 l 0,-6 0,-6 -23,0 -23,0 0,6 0,6 8.25,0.290442 8.25,0.290443 0,50.007275 0,50.00727 6.25,-0.29771 6.25,-0.29772 0.25931,-49.709708 z" id="path3052" />
      <path style="fill:white" d="M 518 29 L 518 85.5 L 518 142 L 529.375 142 C 535.62493 142 543.14403 141.52816 546.09375 140.96875 C 553.05716 139.64817 558.38734 136.05027 561.21875 130.75 C 563.47242 126.53121 563.5 126.20961 563.5 85.5 C 563.5 44.790388 563.47242 44.468792 561.21875 40.25 C 556.67094 31.736704 548.82028 29.071601 528.25 29.03125 L 518 29 z M 531 41 L 535.75 41.0625 C 543.10221 41.14986 547.23271 42.961842 549.25 47 C 550.81537 50.133535 550.9986 54.208868 551 85.8125 C 551.002 125.11948 550.88222 125.91403 544.46875 128.59375 C 542.59795 129.37542 538.79891 130 536.03125 130 L 531 130 L 531 85.5 L 531 41 z " id="path3050" />
      <path style="fill:white" d="m 584.03815,85.5 -0.004,-56 -6.26724,0 -6.26724,0 -0.25977,55 c -0.14288,30.25 -0.0362,55.58412 0.23705,56.29805 0.34988,0.91413 2.28146,1.2099 6.53069,1 l 6.03385,-0.29805 -0.004,-56 z" id="path3046" />
    </g>
    <path id="path3035" d="m 689,12 0,-3 -162,0 -162,0 0,3 0,3 162,0 162,0 0,-3 z" style="fill:white" />
    <path id="path3113" d="M 25 28.9375 L 25 85.5 L 25 142.0625 L 34.75 141.78125 L 44.5 141.5 L 45 116.5 L 45.5 91.5 L 49.375 114.5 C 51.504126 127.15 53.623989 138.5125 54.09375 139.75 C 54.803586 141.61994 55.694855 142 59.40625 142 C 61.862404 142 64.123365 141.61397 64.40625 141.15625 C 64.689136 140.69854 66.733381 129.56104 68.96875 116.40625 C 71.204119 103.25147 73.216716 92.05 73.4375 91.5 C 73.658283 90.95 73.862829 102.10688 73.90625 116.28125 L 74 142.03125 L 93.25 141.78125 L 112.5 141.5 L 113.875 132.75 L 115.28125 124 L 123.0625 124 L 130.84375 124 L 131.53125 129.75 C 131.89681 132.9125 132.50976 136.85 132.90625 138.5 L 133.625 141.5 L 152.5625 141.5 L 171.5 141.5 L 171.6875 123.5 L 171.875 105.5 L 174.15625 105.5 C 176.25949 105.5 176.74089 106.63926 180.09375 119.5 C 182.10117 127.2 184.2651 135.4125 184.90625 137.75 L 186.0625 142 L 195.53125 142 C 203.29152 142 205 141.73522 205 140.5 C 205 139.6717 202.32722 129.91427 199.0625 118.8125 L 193.125 98.625 L 196.0625 95.28125 C 199.73387 91.09979 202.98098 84.817818 204.46875 79.03125 C 205.5661 74.763195 205.83544 75.939205 210.875 106.53125 C 213.77058 124.10855 216.35116 139.2875 216.625 140.25 C 217.06181 141.78537 218.54877 142 228.5625 142 C 239.57575 142 239.99078 141.9211 240.5 139.75 C 240.79025 138.5125 244.33384 116.575 248.40625 91 L 255.8125 44.5 L 256.15625 93 L 256.5 141.5 L 275.5 141.5 L 294.5 141.5 L 294.5 131.5 L 294.5 121.5 L 285.25 121.21875 L 276 120.9375 L 276 108.5 L 276 96.0625 L 285.25 95.78125 L 294.5 95.5 L 294.5 85.5 L 294.5 75.5 L 285.25 75.21875 L 276 74.9375 L 276 62.5 L 276 50.0625 L 285.25 49.78125 L 294.5 49.5 L 294.5 39.5 L 294.5 29.5 L 266.28125 29.25 L 238.03125 28.96875 L 237.5625 31.25 C 236.8593 34.519334 229 92.742314 229 94.6875 C 229 99.936642 227.70562 92.143272 224.0625 65 C 221.81165 48.229854 219.71507 33.2625 219.40625 31.75 L 218.84375 29 L 208.8125 29 L 198.78125 29 L 199.4375 35.75 C 199.81021 39.4625 200.35302 43.276558 200.625 44.21875 C 200.89698 45.160941 198.28062 43.090997 194.8125 39.625 C 186.34504 31.162718 181.94425 29.713849 164.5 29.59375 L 151.5 29.5 L 151.15625 77 L 150.8125 124.5 L 143.625 77 L 136.4375 29.5 L 123 29.5 L 109.5625 29.5 L 102.40625 77.5 C 98.468787 103.90577 95.026897 126.40577 94.75 127.5 C 94.473102 128.59424 94.188801 106.87269 94.125 79.21875 L 94 28.9375 L 81.28125 29.21875 L 68.5625 29.5 L 66.90625 39.5 C 66.001998 45 64.009476 57.485996 62.46875 67.25 C 60.928024 77.014004 59.475776 84.819526 59.25 84.59375 C 59.024224 84.367974 57.097773 72.781978 54.9375 58.84375 C 52.777227 44.905522 50.770154 32.525022 50.5 31.34375 C 50.031917 29.297022 49.418254 29.196884 37.5 29.0625 L 25 28.9375 z M 172.6875 49.46875 C 175.29814 49.623401 181.12927 53.320135 182.53125 56.03125 C 184.79135 60.401805 185.47579 68.591834 184.03125 73.9375 C 182.55984 79.382552 177.25238 85 173.59375 85 L 171 85 L 171 67.5625 C 171 57.969959 171.34441 49.894982 171.78125 49.625 C 172.00144 49.488915 172.31455 49.446657 172.6875 49.46875 z M 122.9375 62.78125 C 123.27581 62.380061 124.58264 71.155061 125.84375 82.28125 C 127.10486 93.407439 128.35274 103.2875 128.625 104.25 C 129.05395 105.76639 128.38669 106 123.5625 106 C 118.92934 106 118.00535 105.70634 118 104.25 C 117.9854 100.28894 122.3699 63.454358 122.9375 62.78125 z " style="fill:white" />
    <path id="path3097" d="m 335,131 0,-10 -8.48991,0 -8.48991,0 L 317.76009,75.25 317.5,29.5 l -9.5,0 -9.5,0 -0.2584,55.75 -0.25839,55.75 18.50839,0 18.5084,0 0,-10 z" style="fill:white" />
  </g>
</svg>
